<?xml version="1.0" encoding="UTF-8" standalone="no"?> <svg xmlns:osb="http://www.openswatchbook.org/uri/2009/osb" xmlns:dc="http://purl.org/dc/elements/1.1/" xmlns:cc="http://creativecommons.org/ns#" xmlns:rdf="http://www.w3.org/1999/02/22-rdf-syntax-ns#" xmlns:svg="http://www.w3.org/2000/svg" xmlns="http://www.w3.org/2000/svg" xmlns:sodipodi="http://sodipodi.sourceforge.net/DTD/sodipodi-0.dtd" xmlns:inkscape="http://www.inkscape.org/namespaces/inkscape" width="48pt" height="48pt" viewBox="0 0 47.999989 47.999994" preserveAspectRatio="xMidYMid meet" id="svg32" sodipodi:docname="kvanta_logo_48_w.svg" inkscape:version="0.92.2 (5c3e80d, 2017-08-06)"> <defs id="defs36"> <linearGradient id="linearGradient831" osb:paint="solid"> <stop style="stop-color:#010000;stop-opacity:1;" offset="0" id="stop829"></stop> </linearGradient> </defs> <metadata id="metadata24"></metadata> <g style="fill:#000000;stroke:none" transform="matrix(0.07824037,0,0,-0.07824037,35.337444,44.420914)" id="g826"> <circle id="path387" cx="-144.90535" cy="-261.00232" style="fill:#ffffff;fill-opacity:1;stroke:#000000;stroke-width:54.52407455;stroke-miterlimit:4;stroke-dasharray:none;stroke-opacity:1" transform="scale(1,-1)" r="279.48492"></circle> <path id="path26" style="fill:#000000;fill-opacity:1;stroke:#000000;stroke-width:0.05596828;stroke-miterlimit:4;stroke-dasharray:none;stroke-opacity:1" d="m -6.3103436,472.497 c -1.4358131,0.0101 0,0 0,0 -16.8138034,-0.15364 -34.5266524,-5.71527 -50.7887754,-11.85247 -28.39571,-10.71625 -48.587941,-24.2682 -80.212101,-43.04375 -19.49128,-11.60159 -21.85044,-12.94693 -32.85992,-19.28014 -43.64472,-25.10876 -63.41647,-33.51557 -82.45838,-35.1409 -11.90821,-1.00886 -16.96398,1.2892 -16.96398,7.73454 0,2.69025 1.68541,9.69619 3.93223,16.14151 3.93196,11.32138 4.83081,18.43899 2.92101,22.13804 -1.57278,2.97046 -6.01098,5.04418 -10.78545,5.04418 -6.7405,0 -11.06568,-1.68173 -16.0087,-6.22148 -3.08941,-2.80233 -6.06622,-3.97874 -10.1667,-3.92271 -5.05536,0 -8.20062,1.62488 -13.9862,7.06137 -6.17876,5.82883 -8.31367,7.23057 -10.22347,6.78222 -0.78639,-0.2242 -3.03281,-1.9619 -4.94264,-3.92355 -2.58386,-2.63415 -3.65111,-4.20357 -4.21283,-6.27728 -1.40426,-4.81999 -0.5058,-14.3481 1.96572,-20.12087 0.61787,-1.51324 1.46404,-2.29054 3.48299,-3.19446 2.36239,-1.05771 4.43825,-1.25619 16.17652,-1.79304 l 13.48099,-0.61656 -5.89793,-5.94154 c -10.95332,-11.09718 -20.53666,-24.77868 -27.46721,-39.12023 -10.35409,-21.42612 -16.59438,-44.9309 -20.27745,-68.43212 -2.54333,-16.22877 -2.18642,-32.87346 -1.12396,-49.26522 1.51709,-23.40579 5.67236,-46.63566 10.67276,-69.55355 1.82177,-8.34973 4.55884,-16.4756 7.02105,-24.66013 5.64871,-18.7766 11.92333,-39.639067 17.78103,-56.072886 1.41729,-3.948807 2.67741,-7.994052 4.66042,-11.692446 1.48029,-2.760755 2.73698,-5.992274 5.34649,-7.731254 3.24844,-2.164744 7.55976,-2.675239 11.45942,-2.447513 10.12152,0.59115 24.856,2.07001 28.79688,9.771447 2.52547,4.935463 0.44349,12.06964 -3.10367,16.333669 -2.41525,2.903345 -8.37594,3.728218 -10.56659,4.120523 -8.36946,1.569324 -9.26836,1.84641 -11.122,3.527822 -5.84332,5.122774 -14.82859,33.703358 -18.87291,60.157328 -0.95489,6.16508 -0.95489,22.08196 0,26.34149 0.95494,4.25953 3.25815,9.0238 4.99946,10.42495 4.15663,3.25068 11.34615,-1.34518 17.97436,-11.5456 4.32516,-6.66951 9.66187,-12.33002 14.82959,-15.80491 7.80775,-5.1002 36.62317,-18.15908 43.86919,-19.72841 4.49368,-1.00887 9.09973,1.45735 17.46918,9.41596 7.41456,7.17392 12.13241,14.06755 12.13241,17.87871 0,4.20349 -4.8862,17.54214 -15.33397,41.92228 l -3.59572,8.51944 3.98819,3.25032 c 2.19068,1.8495 5.11206,4.14758 6.40395,5.21244 2.5277,1.90557 4.04415,4.53972 4.04415,6.94972 0,1.62535 -2.47152,3.97954 -5.05537,4.7642 -6.06644,1.84954 -30.60256,1.10729 -45.9114,1.23312 -3.49957,0.094 -11.66861,-0.64945 -13.74184,0.97037 -1.0106,0.84832 -1.20966,2.42201 -1.29181,3.7372 -0.42373,6.78366 2.41536,15.52488 4.21283,19.95255 8.59411,20.73714 35.89312,50.10522 77.5157,83.28466 36.0055,28.69573 82.00928,61.59509 99.029048,70.78669 10.728612,5.77279 20.895153,9.35975 31.062067,10.92906 8.63046,0.92704 16.758248,1.26235 25.220909,0.0558 17.244418,-2.57814 28.702209,-8.40671 30.6120186,-15.41246 0.7302017,-2.7463 0.2818709,-6.33333 -0.8977174,-7.34215 -1.179579,-0.95279 -2.3863499,-0.071 -9.1554472,5.71657 -5.70478,4.87755 -6.743518,5.8689 -10.689218,7.87765 -3.32716,1.69387 -6.967711,2.9738 -10.680305,3.38338 -5.347717,0.58993 -10.984616,0.32263 -16.079553,-1.40248 -5.871477,-1.98804 -11.349443,-5.55157 -15.68911,-9.97021 -4.510784,-4.59286 -8.301298,-10.28997 -10.053975,-16.47812 -2.561286,-9.04297 -2.190105,-19.02551 -0.112723,-28.1912 2.23691,-9.86967 7.278507,-19.13598 13.200398,-27.35052 5.968905,-8.27972 13.546865,-15.56493 21.96257,-21.35398 8.345075,-5.74043 17.674521,-10.63287 27.579935,-12.77792 12.57073284,-2.72222 26.123647,-2.88755 38.589173,0.27996 14.879571,3.78092 29.377512,11.09702 40.611666,21.68979 10.08171,9.62015 15.400397,17.319 19.203692,28.99411 v 0 C 96.883336,385.96523 83.6432,427.40841 51.660423,452.11528 34.567397,465.31984 15.227113,472.34307 -6.3103436,472.497 Z M -400.95504,258.06573 c -0.0749,0.004 -0.14329,4.8e-4 -0.18677,-0.0164 -0.0243,-0.01 -0.0497,-0.0175 -0.074,-0.0272 0.21014,-0.0139 0.42006,-0.0298 0.63026,-0.0426 0.13984,-0.009 -0.14487,0.0735 -0.36944,0.0862 z m 171.25159,-76.9031 c 1.26337,-0.005 2.69097,-0.73231 3.9232,-2.15098 2.24682,-2.52211 3.42655,-5.21258 3.53892,-8.12701 0.0563,-1.84952 -0.22473,-2.522 -1.46048,-3.58689 -2.86473,-2.46604 -5.89804,-1.40144 -7.97637,2.80204 -1.62896,3.30673 -1.90949,7.79091 -0.50521,9.75256 0.61437,0.88271 1.49733,1.3146 2.47994,1.31028 z m 31.8306,-37.50945 c -0.33703,0 -2.07859,-1.06492 -3.93224,-2.29795 -11.96437,-8.35091 -18.76099,-15.07688 -18.76099,-18.38365 0,-6.05298 6.90901,-11.71318 26.96199,-22.19384 19.21042,-10.032311 38.92666,-21.746262 74.70747,-44.276909 7.24602,-4.539746 16.62681,-10.480568 20.783477,-13.058674 4.156622,-2.634193 9.492848,-5.660491 11.795869,-6.781375 3.988114,-1.905629 6.673794,-1.996378 10.110736,-2.01802 4.380846,-0.02775 8.839431,0.816452 12.919011,2.409605 6.524585,2.547948 15.371673,6.251589 17.794196,11.163841 2.422528,4.912263 1.086455,8.537847 -1.128074,11.82229 -2.281129,3.383168 -6.855396,4.884459 -10.866915,5.662373 -5.369154,1.041155 -10.972799,-2.686698 -16.331223,-1.591906 -19.81889,4.049214 -36.071137,18.39779 -53.222147,29.102523 -7.68552,4.796868 -14.8038,10.444252 -22.18718,15.692412 -16.24196,11.54497 -46.62184,34.74928 -48.64398,34.74928 z" inkscape:connector-curvature="0" sodipodi:nodetypes="csacccsccscccccccssccsssaacaaasccccccccccsccccscccacccccccsaaaasssssscccccccccccccccccccscscccccazssccc"></path> </g> </svg> 